<svg xmlns="http://www.w3.org/2000/svg" viewBox="0 0 36 36">
  <path fill="#DD2E44" d="M35.094 17.938s-3.406-2.75-5.156-3.5c-1.75-.75-1.094-1.656-.875-2.156s.531-1.75-.188-2.281-3.156-.156-3.75-.25-.875-.281-1.562-.844-2.375-2.438-2.375-2.438-.687-.937-1.281-.312-1.219 2.156-1.219 2.156-1.594 3.5-1.594 4.438l-.156.562-1.344-1.5s-.625-.719-1 0-.125 2.25-.125 2.25-.156 1-.781.312S12 12.313 12 12.313s-.687-.844-1.25-.312-.188 3.25-.188 3.25.25 1.625-.531 1-.969-.906-1.531-1.062-1.469-.219-1.5.375-.063 1.688-.063 1.688-.156.812-.781.25-2.969-3.406-2.969-3.406-.812-.656-1.156.156.469 3.156.469 3.156.25 1.094-.406.75c-.656-.344-2-1.281-2-1.281s-.781-.656-1.031.094-.156 1.25-.156 1.25-.375.5-.125 1.063 1.969 1.688 1.969 1.688 4.875 4 6.156 4.281c1.281.281 1.563-.156 1.813.188s.406 1.5 1.094 1.875c.687.375 3.219 1.438 3.781 4.25s.563 5.219.563 5.219.062.844.781.75 1.344-.969 1.344-.969.406-4.187.594-4.656.531-.687.844-.469.562 1.031.562 1.031 1.469 1.031 1.719-.031-.687-3.281-.687-3.281-.281-.656.156-.938.625-.094 1.094.344.906 1.219 1.312 1.219 2.781-.906 3.344-.906 2.875.219 3.438.281 1.625.25 2.344-.219 1.406-.844 1.406-.844 2.625.312 2.937-.031-.312-1.562.219-2.031 2.219.531 3-.312.5-1.813.5-1.813-.844-2.156-.562-2.344 3.25-1.438 3.562-1.969-.25-1.468-.25-1.468z"/>
</svg>